Coordinates
version=1
nRows=11
nColumns=40
inDegrees=yes

Units are S.I. units (second, meters, Newtons, ...)
Angles are in degrees.

endheader
time	pelvis_tilt	pelvis_list	pelvis_rotation	pelvis_tx	pelvis_ty	pelvis_tz	hip_flexion_r	hip_adduction_r	hip_rotation_r	knee_angle_r	knee_angle_r_beta	ankle_angle_r	subtalar_angle_r	mtp_angle_r	hip_flexion_l	hip_adduction_l	hip_rotation_l	knee_angle_l	knee_angle_l_beta	ankle_angle_l	subtalar_angle_l	mtp_angle_l	lumbar_extension	lumbar_bending	lumbar_rotation	arm_flex_r	arm_add_r	arm_rot_r	elbow_flex_r	pro_sup_r	wrist_flex_r	wrist_dev_r	arm_flex_l	arm_add_l	arm_rot_l	elbow_flex_l	pro_sup_l	wrist_flex_l	wrist_dev_l
      0.00000000	     -4.22582586	     -5.36792077	      1.89607804	     -1.23223592	      0.94343060	      1.48777534	     15.71426526	      1.90041331	    -20.30731154	    -18.75896683	     -0.32740574	      2.62606863	     -3.55310033	     -0.79614594	     16.11153846	     13.22306046	      3.52824618	    -57.25690726	     -0.99932155	      2.25809916	     14.74751805	      0.98862529	     -2.25073831	      5.89959205	     -0.93781545	      1.51363958	    -10.58008735	    -21.93200524	     16.46701294	     89.95437384	      0.00000000	      0.00000000	     -5.45068533	     11.25451369	      0.10387581	     12.88749593	     89.95437384	      0.00000000	      0.00000000
      0.01000000	     -4.13286609	     -5.17719606	      2.01202454	     -1.22631109	      0.94475583	      1.49016499	     14.89974604	      1.97897287	    -20.42524913	    -18.14989711	     -0.31677546	      2.82621772	     -3.41329062	     -0.81005459	     17.23267212	     13.01089923	      4.07718742	    -57.58176913	     -1.00499146	      3.46936764	     16.06140012	      1.05536083	     -2.48528041	      5.71826446	     -0.75347197	      1.74009111	    -10.63081414	    -21.77393472	     16.22518456	     89.95437384	      0.00000000	      0.00000000	     -5.21705473	     11.17874500	      0.15406042	     13.07429484	     89.95437384	      0.00000000	      0.00000000
      0.02000000	     -4.07399772	     -4.90220788	      2.07135373	     -1.22009679	      0.94606209	      1.49245893	     14.10353676	      1.92044032	    -20.63525893	    -17.55742641	     -0.30643490	      2.92836056	     -3.16537201	     -0.83133986	     18.23011436	     12.64368671	      4.61259069	    -57.50772375	     -1.00369912	      4.47828739	     16.85706211	      1.22470909	     -2.63263385	      5.44131774	     -0.53234211	      1.87891016	    -10.67422665	    -21.50805452	     16.10740214	     89.95437384	      0.00000000	      0.00000000	     -5.14689987	     11.11489761	      0.36170024	     13.51994024	     89.95437384	      0.00000000	      0.00000000
      0.03000000	     -3.50644052	     -4.39220376	      2.04878617	     -1.21354072	      0.94820269	      1.49453639	     12.72003769	      1.55695732	    -21.10749584	    -16.99325769	     -0.29658830	      3.14617414	     -2.25814717	     -1.17194993	     18.39274566	     12.05050448	      5.43671706	    -56.90003109	     -0.99309289	      5.43697342	     17.26070228	      3.20731164	     -3.38534382	      4.92879537	     -0.31308258	      2.03926612	    -10.80003531	    -20.36411370	     16.17044580	     89.95437384	      0.00000000	      0.00000000	     -4.94642877	     10.98422909	      1.33017263	     13.73932977	     89.95437384	      0.00000000	      0.00000000
      0.04000000	     -3.52525538	     -3.76596720	      1.97686490	     -1.20731717	      0.94927523	      1.49642654	     12.15439803	      0.94788461	    -21.57978894	    -16.78038378	     -0.29287295	      3.35379582	     -1.06271784	     -3.21384302	     19.25842188	     11.17041793	      6.08455285	    -56.34509770	     -0.98340747	      7.78678413	     17.31256590	     11.54392811	     -3.45733661	      4.28061780	     -0.11239187	      2.24379544	    -10.86178882	    -19.75933157	     16.05951588	     89.95437384	      0.00000000	      0.00000000	     -4.82837619	     10.84922555	      2.09417257	     13.97378993	     89.95437384	      0.00000000	      0.00000000
      0.05000000	     -3.64228417	     -3.54091147	      1.87450978	     -1.20131845	      0.95010318	      1.49870935	     11.68674401	      0.92026725	    -21.80183742	    -16.43205223	     -0.28679341	      3.49772474	     -1.08320749	     -3.21037601	     20.27851909	     10.87563721	      6.76919250	    -55.55458306	     -0.96961039	      8.11858063	     17.30247158	     11.41958238	     -3.41836883	      4.04878805	      0.26026123	      2.36917003	    -10.93544939	    -19.56034501	     16.05079124	     89.95437384	      0.00000000	      0.00000000	     -4.63877232	     10.77572286	      2.10952108	     14.19175011	     89.95437384	      0.00000000	      0.00000000
      0.06000000	     -3.00735331	     -2.97103970	      1.56231384	     -1.19413817	      0.95229206	      1.50118197	     10.11938641	      0.65396047	    -21.47818749	    -15.62452960	     -0.27269949	      3.53386008	     -0.51689810	     -3.34012037	     19.93594705	     10.28286024	      7.87256834	    -54.05028826	     -0.94335549	      8.36488207	     17.22682076	     11.41316893	     -4.16779145	      3.43004051	      0.70031229	      2.61799889	    -10.97697023	    -18.72381128	     15.96423222	     89.95437384	      0.00000000	      0.00000000	     -4.55154767	     10.73078773	      2.49368672	     14.47606971	     89.95437384	      0.00000000	      0.00000000
      0.07000000	     -2.85892255	     -2.40654728	      1.18692056	     -1.18802729	      0.95342474	      1.50332181	      9.43770693	      0.22374770	    -21.40209787	    -15.41909826	     -0.26911403	      3.84545961	     -0.05535200	     -3.57708055	     20.27182067	      9.60908871	      8.87926480	    -52.49087606	     -0.91613861	      8.49216877	     17.05744552	     11.38414743	     -4.46104470	      2.82938691	      1.18265047	      2.82630316	    -11.07580065	    -17.87993465	     16.09132583	     89.95437384	      0.00000000	      0.00000000	     -4.34798527	     10.62916436	      2.90358676	     14.56960404	     89.95437384	      0.00000000	      0.00000000
      0.08000000	     -2.95751645	     -2.07179381	      1.07589096	     -1.18145621	      0.95405842	      1.50548817	      8.81953659	      0.11794767	    -21.39658092	    -14.82856124	     -0.25880722	      4.02318209	      0.19903109	     -3.64387881	     20.97516653	      9.17037731	      9.57314679	    -50.91797532	     -0.88868632	      8.42611071	     16.58161697	     11.31098768	     -4.34743511	      2.44444179	      1.44707585	      2.94133884	    -11.08714182	    -17.41861722	     16.11113277	     89.95437384	      0.00000000	      0.00000000	     -4.24456986	     10.57945909	      3.22659848	     14.68501586	     89.95437384	      0.00000000	      0.00000000
      0.09000000	     -3.10847668	     -1.97250293	      0.92395999	     -1.17539801	      0.95432459	      1.50748827	      8.50271220	      0.16910436	    -21.60969577	    -14.69823284	     -0.25653256	      4.24323678	      0.17853529	     -3.67825143	     21.81697247	      9.04662116	     10.44428270	    -49.38260625	     -0.86188907	      8.46436832	     16.35471868	     11.21471508	     -4.22838369	      2.35261909	      1.75828955	      3.12634254	    -11.17731687	    -17.10275528	     16.22797144	     89.95437384	      0.00000000	      0.00000000	     -4.11273998	     10.47455848	      3.33420601	     14.85451738	     89.95437384	      0.00000000	      0.00000000
      0.10000000	     -2.46598095	     -1.00651537	      0.34013382	     -1.16863369	      0.95609264	      1.50947805	      7.24898062	     -0.76479486	    -21.46819040	    -14.47339621	     -0.25260842	      4.66423033	      1.48862318	     -4.39266430	     21.10506664	      8.04769546	     12.06904903	    -46.82491152	     -0.81724888	      7.97978584	     15.93225943	     10.89564308	     -5.05017766	      1.29287022	      2.17193122	      3.44026825	    -11.30845372	    -15.14780497	     16.46272266	     89.95437384	      0.00000000	      0.00000000	     -3.93319849	     10.27686435	      5.26085657	     14.80355294	     89.95437384	      0.00000000	      0.00000000
